<svg width="24" height="30" viewBox="0 0 24 30" fill="none" xmlns="http://www.w3.org/2000/svg">
<path d="M12 16.125C14.2782 16.125 16.125 14.2782 16.125 12C16.125 9.72183 14.2782 7.875 12 7.875C9.72183 7.875 7.875 9.72183 7.875 12C7.875 14.2782 9.72183 16.125 12 16.125Z" stroke="white" stroke-width="2" stroke-linecap="round" stroke-linejoin="round"/>
<path d="M12 1C9.08262 1 6.28473 2.15893 4.22183 4.22183C2.15893 6.28473 1 9.08262 1 12C1 14.6015 1.55275 16.3037 3.0625 18.1875L12 28.5L20.9375 18.1875C22.4473 16.3037 23 14.6015 23 12C23 9.08262 21.8411 6.28473 19.7782 4.22183C17.7153 2.15893 14.9174 1 12 1V1Z" stroke="white" stroke-width="2" stroke-linecap="round" stroke-linejoin="round"/>
</svg>
