<svg width="25" height="33" fill="none" xmlns="http://www.w3.org/2000/svg"><path d="M5 .005h2v11.737H5V.005z" fill="#fff"/><path d="M10 10.568c0 1.245-.421 2.44-1.172 3.32-.75.88-1.767 1.375-2.828 1.375-1.06 0-2.078-.495-2.828-1.375S2 11.813 2 10.568V.005H0v10.563c.001 1.663.504 3.272 1.42 4.541.915 1.27 2.183 2.118 3.58 2.395v15.364h2V17.504c1.397-.277 2.665-1.125 3.58-2.395.916-1.27 1.419-2.878 1.42-4.54V.004h-2v10.563zM18 .005h-1v32.863h2V21.13h3c.53 0 1.04-.247 1.414-.688.375-.44.586-1.037.586-1.66V7.048a7.85 7.85 0 00-.394-2.737 6.989 6.989 0 00-1.295-2.323 5.79 5.79 0 00-1.979-1.52A5.02 5.02 0 0018 .005zm4 18.779h-3V2.458c2.88.657 3 4.155 3 4.59v11.736z" fill="#fff"/></svg>